<mxfile host="app.diagrams.net" modified="2021-09-07T08:04:58.750Z" agent="5.0 (Macintosh; Intel Mac OS X 10_15_7) AppleWebKit/537.36 (KHTML, like Gecko) Chrome/92.0.4515.159 Safari/537.36" etag="sZWhhDYT3xyGPwq0brxD" version="15.1.0" type="github">
  <diagram id="ez6lYk9zeIZkezo6uZ-A" name="Page-1">
    <mxGraphModel dx="1894" dy="614" grid="1" gridSize="10" guides="1" tooltips="1" connect="1" arrows="1" fold="1" page="1" pageScale="1" pageWidth="827" pageHeight="1169" math="0" shadow="0">
      <root>
        <mxCell id="0" />
        <mxCell id="1" parent="0" />
        <mxCell id="alekSeEb5w1YkhWSbBQQ-1" value="&lt;span style=&quot;font-size: 18px&quot;&gt;register&lt;/span&gt;" style="shape=offPageConnector;whiteSpace=wrap;html=1;" vertex="1" parent="1">
          <mxGeometry x="360" width="80" height="80" as="geometry" />
        </mxCell>
        <mxCell id="alekSeEb5w1YkhWSbBQQ-2" value="" style="verticalLabelPosition=bottom;verticalAlign=top;html=1;shape=mxgraph.basic.rect;fillColor2=none;strokeWidth=1;size=20;indent=5;" vertex="1" parent="1">
          <mxGeometry x="270" y="210" width="530" height="330" as="geometry" />
        </mxCell>
        <mxCell id="alekSeEb5w1YkhWSbBQQ-3" value="FN1" style="verticalLabelPosition=bottom;verticalAlign=top;html=1;shape=card;whiteSpace=wrap;size=20;arcSize=12;fillColor=#00CC66;" vertex="1" parent="1">
          <mxGeometry x="310" y="250" width="100" height="60" as="geometry" />
        </mxCell>
        <mxCell id="alekSeEb5w1YkhWSbBQQ-4" value="FN2" style="verticalLabelPosition=bottom;verticalAlign=top;html=1;shape=card;whiteSpace=wrap;size=20;arcSize=12;fillColor=#00CC66;" vertex="1" parent="1">
          <mxGeometry x="430" y="250" width="100" height="60" as="geometry" />
        </mxCell>
        <mxCell id="alekSeEb5w1YkhWSbBQQ-5" value="..." style="verticalLabelPosition=bottom;verticalAlign=top;html=1;shape=card;whiteSpace=wrap;size=20;arcSize=12;fillColor=#00CC66;" vertex="1" parent="1">
          <mxGeometry x="550" y="250" width="100" height="60" as="geometry" />
        </mxCell>
        <mxCell id="alekSeEb5w1YkhWSbBQQ-6" value="" style="verticalLabelPosition=bottom;verticalAlign=top;html=1;shape=card;whiteSpace=wrap;size=20;arcSize=12;fillColor=#00CC66;" vertex="1" parent="1">
          <mxGeometry x="670" y="250" width="100" height="60" as="geometry" />
        </mxCell>
        <mxCell id="alekSeEb5w1YkhWSbBQQ-7" value="" style="verticalLabelPosition=bottom;verticalAlign=top;html=1;shape=card;whiteSpace=wrap;size=20;arcSize=12;fillColor=#00CC66;" vertex="1" parent="1">
          <mxGeometry x="310" y="335" width="100" height="60" as="geometry" />
        </mxCell>
        <mxCell id="alekSeEb5w1YkhWSbBQQ-8" value="" style="verticalLabelPosition=bottom;verticalAlign=top;html=1;shape=card;whiteSpace=wrap;size=20;arcSize=12;fillColor=#00CC66;" vertex="1" parent="1">
          <mxGeometry x="670" y="335" width="100" height="60" as="geometry" />
        </mxCell>
        <mxCell id="alekSeEb5w1YkhWSbBQQ-9" value="" style="verticalLabelPosition=bottom;verticalAlign=top;html=1;shape=card;whiteSpace=wrap;size=20;arcSize=12;fillColor=#00CC66;" vertex="1" parent="1">
          <mxGeometry x="550" y="335" width="100" height="60" as="geometry" />
        </mxCell>
        <mxCell id="alekSeEb5w1YkhWSbBQQ-10" value="" style="verticalLabelPosition=bottom;verticalAlign=top;html=1;shape=card;whiteSpace=wrap;size=20;arcSize=12;fillColor=#00CC66;" vertex="1" parent="1">
          <mxGeometry x="430" y="335" width="100" height="60" as="geometry" />
        </mxCell>
        <mxCell id="alekSeEb5w1YkhWSbBQQ-12" value="" style="verticalLabelPosition=bottom;verticalAlign=top;html=1;shape=card;whiteSpace=wrap;size=20;arcSize=12;fillColor=#00CC66;" vertex="1" parent="1">
          <mxGeometry x="670" y="420" width="100" height="60" as="geometry" />
        </mxCell>
        <mxCell id="alekSeEb5w1YkhWSbBQQ-13" value="" style="verticalLabelPosition=bottom;verticalAlign=top;html=1;shape=card;whiteSpace=wrap;size=20;arcSize=12;fillColor=#00CC66;" vertex="1" parent="1">
          <mxGeometry x="550" y="420" width="100" height="60" as="geometry" />
        </mxCell>
        <mxCell id="alekSeEb5w1YkhWSbBQQ-32" style="edgeStyle=orthogonalEdgeStyle;rounded=0;orthogonalLoop=1;jettySize=auto;html=1;" edge="1" parent="1" source="alekSeEb5w1YkhWSbBQQ-19" target="alekSeEb5w1YkhWSbBQQ-2">
          <mxGeometry relative="1" as="geometry" />
        </mxCell>
        <mxCell id="alekSeEb5w1YkhWSbBQQ-19" value="&lt;font style=&quot;font-size: 18px&quot;&gt;when you need emit it&lt;/font&gt;" style="text;html=1;align=center;verticalAlign=middle;resizable=0;points=[];autosize=1;strokeColor=none;fillColor=none;" vertex="1" parent="1">
          <mxGeometry x="440" y="100" width="190" height="20" as="geometry" />
        </mxCell>
        <mxCell id="alekSeEb5w1YkhWSbBQQ-21" value="" style="shape=cube;whiteSpace=wrap;html=1;boundedLbl=1;backgroundOutline=1;darkOpacity=0.05;darkOpacity2=0.1;fillColor=#00CC66;" vertex="1" parent="1">
          <mxGeometry x="310" y="420" width="120" height="80" as="geometry" />
        </mxCell>
        <mxCell id="alekSeEb5w1YkhWSbBQQ-27" style="edgeStyle=orthogonalEdgeStyle;rounded=0;orthogonalLoop=1;jettySize=auto;html=1;entryX=-0.002;entryY=0.458;entryDx=0;entryDy=0;entryPerimeter=0;" edge="1" parent="1" source="alekSeEb5w1YkhWSbBQQ-24" target="alekSeEb5w1YkhWSbBQQ-2">
          <mxGeometry relative="1" as="geometry" />
        </mxCell>
        <mxCell id="alekSeEb5w1YkhWSbBQQ-24" value="" style="html=1;whiteSpace=wrap;shape=isoCube2;backgroundOutline=1;isoAngle=15;fillColor=#00CC66;" vertex="1" parent="1">
          <mxGeometry x="60" y="310" width="90" height="100" as="geometry" />
        </mxCell>
        <mxCell id="alekSeEb5w1YkhWSbBQQ-26" style="edgeStyle=orthogonalEdgeStyle;rounded=0;orthogonalLoop=1;jettySize=auto;html=1;" edge="1" parent="1" source="alekSeEb5w1YkhWSbBQQ-25" target="alekSeEb5w1YkhWSbBQQ-24">
          <mxGeometry relative="1" as="geometry">
            <mxPoint x="90" y="430" as="targetPoint" />
          </mxGeometry>
        </mxCell>
        <mxCell id="alekSeEb5w1YkhWSbBQQ-25" value="&lt;font style=&quot;font-size: 18px&quot;&gt;subscribe&amp;nbsp;it ,if to be emiited&lt;/font&gt;" style="text;html=1;align=center;verticalAlign=middle;resizable=0;points=[];autosize=1;strokeColor=none;fillColor=none;" vertex="1" parent="1">
          <mxGeometry x="-220" y="430" width="230" height="20" as="geometry" />
        </mxCell>
        <mxCell id="alekSeEb5w1YkhWSbBQQ-29" value="" style="shape=image;html=1;verticalAlign=top;verticalLabelPosition=bottom;labelBackgroundColor=#ffffff;imageAspect=0;aspect=fixed;image=https://cdn3.iconfinder.com/data/icons/watchify-v1-0-32px/32/delete-128.png;fillColor=#00CC66;" vertex="1" parent="1">
          <mxGeometry x="570" y="413" width="74" height="74" as="geometry" />
        </mxCell>
        <mxCell id="alekSeEb5w1YkhWSbBQQ-31" style="edgeStyle=orthogonalEdgeStyle;rounded=0;orthogonalLoop=1;jettySize=auto;html=1;" edge="1" parent="1" source="alekSeEb5w1YkhWSbBQQ-30" target="alekSeEb5w1YkhWSbBQQ-29">
          <mxGeometry relative="1" as="geometry" />
        </mxCell>
        <mxCell id="alekSeEb5w1YkhWSbBQQ-30" value="&lt;font style=&quot;font-size: 18px&quot;&gt;unsubscribe it if no need&lt;/font&gt;" style="text;html=1;align=center;verticalAlign=middle;resizable=0;points=[];autosize=1;strokeColor=none;fillColor=none;" vertex="1" parent="1">
          <mxGeometry x="85" y="650" width="210" height="20" as="geometry" />
        </mxCell>
      </root>
    </mxGraphModel>
  </diagram>
</mxfile>
